<svg width="1200" height="900" viewBox="0 0 1200 900" fill="none" xmlns="http://www.w3.org/2000/svg">
  <rect width="1200" height="900" fill="#F7F5FF"/>
  <rect y="650" width="1200" height="250" fill="#E6F0E6"/>
  <rect x="120" y="150" width="960" height="620" rx="36" fill="#FFFFFF"/>
  <rect x="180" y="206" width="840" height="250" rx="26" fill="#FFF0E8"/>
  <circle cx="300" cy="596" r="84" fill="#5A43BA"/>
  <circle cx="460" cy="570" r="84" fill="#FFB68F"/>
  <circle cx="620" cy="606" r="84" fill="#C9BEFF"/>
  <circle cx="780" cy="576" r="84" fill="#6F9D7D"/>
  <circle cx="940" cy="600" r="84" fill="#241B42"/>
  <circle cx="300" cy="546" r="40" fill="#241B42"/>
  <circle cx="460" cy="520" r="40" fill="#241B42"/>
  <circle cx="620" cy="556" r="40" fill="#241B42"/>
  <circle cx="780" cy="526" r="40" fill="#241B42"/>
  <circle cx="940" cy="550" r="40" fill="#F6F3FF"/>
  <rect x="248" y="260" width="704" height="22" rx="11" fill="#E2D9FF"/>
  <rect x="248" y="312" width="520" height="22" rx="11" fill="#F0EAFE"/>
  <rect x="248" y="364" width="580" height="22" rx="11" fill="#E5EDF9"/>
</svg>
